Jumper_states
version=1
nRows=4
nColumns=171
inDegrees=yes

# SIMM Motion File Header:
name Jumper_states
datacolumns 171
datarows 4
otherdata 1
range 0.29091323 0.29569291
endheader
time	pelvis_tilt	pelvis_list	pelvis_rotation	pelvis_tx	pelvis_ty	pelvis_tz	hip_flexion_r	hip_adduction_r	hip_rotation_r	knee_angle_r	tib_tx_r	tib_ty_r	pat_angle_r	pat_tx_r	pat_ty_r	ankle_angle_r	subtalar_angle_r	mtp_angle_r	hip_flexion_l	hip_adduction_l	hip_rotation_l	knee_angle_l	pat_angle_l	pat_tx_l	pat_ty_l	ankle_angle_l	subtalar_angle_l	mtp_angle_l	lumbar_extension	lumbar_bending	lumbar_rotation	pelvis_tilt_u	pelvis_list_u	pelvis_rotation_u	pelvis_tx_u	pelvis_ty_u	pelvis_tz_u	hip_flexion_r_u	hip_adduction_r_u	hip_rotation_r_u	knee_angle_r_u	tib_tx_r_u	tib_ty_r_u	pat_angle_r_u	pat_tx_r_u	pat_ty_r_u	ankle_angle_r_u	subtalar_angle_r_u	mtp_angle_r_u	hip_flexion_l_u	hip_adduction_l_u	hip_rotation_l_u	knee_angle_l_u	pat_angle_l_u	pat_tx_l_u	pat_ty_l_u	ankle_angle_l_u	subtalar_angle_l_u	mtp_angle_l_u	lumbar_extension_u	lumbar_bending_u	lumbar_rotation_u	glut_med1_r.activation	glut_med1_r.fiber_length	glut_med2_r.activation	glut_med2_r.fiber_length	glut_med3_r.activation	glut_med3_r.fiber_length	bifemlh_r.activation	bifemlh_r.fiber_length	bifemsh_r.activation	bifemsh_r.fiber_length	sar_r.activation	sar_r.fiber_length	add_mag2_r.activation	add_mag2_r.fiber_length	tfl_r.activation	tfl_r.fiber_length	pect_r.activation	pect_r.fiber_length	grac_r.activation	grac_r.fiber_length	glut_max1_r.activation	glut_max1_r.fiber_length	glut_max2_r.activation	glut_max2_r.fiber_length	glut_max3_r.activation	glut_max3_r.fiber_length	iliacus_r.activation	iliacus_r.fiber_length	psoas_r.activation	psoas_r.fiber_length	quad_fem_r.activation	quad_fem_r.fiber_length	gem_r.activation	gem_r.fiber_length	peri_r.activation	peri_r.fiber_length	rect_fem_r.activation	rect_fem_r.fiber_length	vas_int_r.activation	vas_int_r.fiber_length	med_gas_r.activation	med_gas_r.fiber_length	soleus_r.activation	soleus_r.fiber_length	tib_post_r.activation	tib_post_r.fiber_length	tib_ant_r.activation	tib_ant_r.fiber_length	glut_med1_l.activation	glut_med1_l.fiber_length	glut_med2_l.activation	glut_med2_l.fiber_length	glut_med3_l.activation	glut_med3_l.fiber_length	bifemlh_l.activation	bifemlh_l.fiber_length	bifemsh_l.activation	bifemsh_l.fiber_length	sar_l.activation	sar_l.fiber_length	add_mag2_l.activation	add_mag2_l.fiber_length	tfl_l.activation	tfl_l.fiber_length	pect_l.activation	pect_l.fiber_length	grac_l.activation	grac_l.fiber_length	glut_max1_l.activation	glut_max1_l.fiber_length	glut_max2_l.activation	glut_max2_l.fiber_length	glut_max3_l.activation	glut_max3_l.fiber_length	iliacus_l.activation	iliacus_l.fiber_length	psoas_l.activation	psoas_l.fiber_length	quad_fem_l.activation	quad_fem_l.fiber_length	gem_l.activation	gem_l.fiber_length	peri_l.activation	peri_l.fiber_length	rect_fem_l.activation	rect_fem_l.fiber_length	vas_int_l.activation	vas_int_l.fiber_length	med_gas_l.activation	med_gas_l.fiber_length	soleus_l.activation	soleus_l.fiber_length	tib_post_l.activation	tib_post_l.fiber_length	tib_ant_l.activation	tib_ant_l.fiber_length	ercspn_r.activation	ercspn_r.fiber_length	ercspn_l.activation	ercspn_l.fiber_length	intobl_r.activation	intobl_r.fiber_length	intobl_l.activation	intobl_l.fiber_length	extobl_r.activation	extobl_r.fiber_length	extobl_l.activation	extobl_l.fiber_length
      0.29091323	     10.57244889	      0.41363250	      1.48099774	      0.07431157	      1.13494386	     -0.00423689	     -4.15116027	     -6.80714743	     -7.93411098	      1.59810078	     -0.00464833	     -0.39571249	     -2.11745154	      0.04960003	     -0.02270001	    -63.16636697	     14.24999998	     -0.00000000	     -3.07737462	     -5.81645986	     -6.44377381	      0.81242258	     -1.08700881	      0.04960001	     -0.02270000	    -63.72745471	     14.24999998	     -0.00000000	    -20.78374991	      0.15452890	     -0.04470460	    131.17860400	      2.32225062	      6.92413115	      0.06152605	      1.40337396	     -0.01432209	   -145.63929923	     44.10459789	   -234.43766389	     38.47635426	     -0.00336233	      0.00255104	    -51.53903565	      0.00000012	     -0.00000004	   -132.71954489	     -0.00000000	      0.00000000	   -142.01819564	     39.83637642	   -237.42364929	     39.99886003	    -51.34968808	      0.00000036	     -0.00000013	   -133.68134420	      0.00000000	     -0.00000000	    -14.05472834	     -0.15244730	      0.84254994	      0.99957062	      0.03715206	      0.92597544	      0.06875874	      0.90580912	      0.04996123	      0.96761860	      0.08504743	      0.96046649	      0.16909768	      0.93543390	      0.46460405	      0.95190392	      0.07657404	      0.99514752	      0.08959817	      0.99999998	      0.07513564	      0.91243432	      0.31861542	      0.94152984	      0.06442901	      0.91513805	      0.07193482	      0.92641891	      0.08589650	      0.96567935	      0.10743804	      0.96988305	      0.09905755	      1.00000000	      0.04506136	      0.91357111	      0.02207424	      0.91135403	      0.01338809	      0.99999586	      0.08975167	      0.12535630	      0.06375324	      0.99998567	      0.04657578	      0.99998882	      0.03900185	      0.91793097	      0.01293953	      0.90540771	      0.10468957	      0.99957062	      0.03787606	      0.92597544	      0.07040121	      0.90580912	      0.05187808	      0.96761861	      0.08538689	      0.96046649	      0.16885423	      0.93543390	      0.46444857	      0.95190391	      0.07568905	      0.99514752	      0.09010724	      0.99999999	      0.07457344	      0.91243432	      0.31729611	      0.94152984	      0.06623150	      0.91513805	      0.07361349	      0.92641891	      0.08692430	      0.96567935	      0.10682967	      0.96988305	      0.09850772	      1.00000000	      0.04569152	      0.91357113	      0.02294676	      0.91135403	      0.01480739	      0.99999586	      0.08988009	      0.12535630	      0.06438950	      0.99998565	      0.04613531	      0.99998882	      0.03885454	      0.91793097	      0.01286853	      0.90540770	      0.10491821	      0.99999980	      0.13270798	      0.99999980	      0.13288692	      0.92110723	      0.07731398	      0.92110723	      0.07792879	      0.94218906	      0.10396321	      0.94218906	      0.10415753
      0.29250646	     10.78160485	      0.41737188	      1.49212267	      0.07440546	      1.13716823	     -0.00425988	     -4.38254087	     -6.73627894	     -8.30701411	      1.65803288	     -0.00465356	     -0.39570852	     -2.19785943	      0.04960003	     -0.02270001	    -63.36631953	     14.24999998	     -0.00000000	     -3.30313882	     -5.75232205	     -6.82124022	      0.87528007	     -1.16784246	      0.04960001	     -0.02270000	    -63.92859707	     14.24999998	     -0.00000000	    -20.80714448	      0.15431060	     -0.04347628	    131.35892646	      2.37116638	      7.04101739	      0.05635008	      1.38888170	     -0.01454565	   -144.81641665	     44.85742105	   -233.71883502	     36.86606420	     -0.00320674	      0.00244036	    -49.54066927	      0.00000010	     -0.00000004	   -118.90711960	     -0.00000000	      0.00000000	   -141.37884787	     40.67578264	   -236.44945166	     38.97749029	    -50.21036650	      0.00000033	     -0.00000012	   -119.25505774	      0.00000000	     -0.00000000	    -15.28932140	     -0.12114048	      0.70034137	      0.99960351	      0.03725256	      0.92631362	      0.06864639	      0.90516126	      0.04971988	      0.96696317	      0.08480024	      0.96357872	      0.16911400	      0.93838290	      0.46477575	      0.95245468	      0.07644218	      0.99552033	      0.08979246	      0.99999998	      0.07519099	      0.91354522	      0.31854783	      0.94209530	      0.06416109	      0.91380707	      0.07160473	      0.92356706	      0.08541998	      0.96837124	      0.10760658	      0.97223822	      0.09921427	      1.00000000	      0.04480094	      0.91112196	      0.02187749	      0.90862363	      0.01319701	      0.99999617	      0.08981154	      0.12330739	      0.06370472	      0.99998677	      0.04649228	      0.99998968	      0.03894006	      0.91816859	      0.01288289	      0.91107678	      0.10473743	      0.99960351	      0.03798148	      0.92631362	      0.07029304	      0.90516126	      0.05163644	      0.96696318	      0.08514479	      0.96357872	      0.16887005	      0.93838290	      0.46461432	      0.95245468	      0.07556392	      0.99552033	      0.09030101	      0.99999999	      0.07463255	      0.91354522	      0.31723307	      0.94209530	      0.06596262	      0.91380707	      0.07328295	      0.92356706	      0.08645628	      0.96837124	      0.10699670	      0.97223822	      0.09866219	      1.00000000	      0.04542497	      0.91112197	      0.02274612	      0.90862363	      0.01461506	      0.99999617	      0.08994308	      0.12330739	      0.06434288	      0.99998675	      0.04605387	      0.99998968	      0.03879479	      0.91816859	      0.01281320	      0.91107678	      0.10496382	      0.99999982	      0.13272007	      0.99999982	      0.13289934	      0.91984693	      0.07729818	      0.91984693	      0.07791010	      0.94346836	      0.10392632	      0.94346836	      0.10412349
      0.29409968	     10.99089110	      0.42118510	      1.50342614	      0.07449117	      1.13936926	     -0.00428323	     -4.61253076	     -6.66421411	     -8.67901965	      1.71594783	     -0.00465858	     -0.39570468	     -2.27580613	      0.04960003	     -0.02270001	    -63.54769562	     14.24999998	     -0.00000000	     -3.52777655	     -5.68685058	     -7.19737855	      0.93690720	     -1.24736327	      0.04960001	     -0.02270000	    -64.10944749	     14.24999998	     -0.00000000	    -20.83231500	      0.15414071	     -0.04246285	    131.30857812	      2.41459569	      7.14400681	      0.05126353	      1.37401645	     -0.01475692	   -143.85106008	     45.60486157	   -233.31793888	     35.95296786	     -0.00311334	      0.00237624	    -48.46329875	      0.00000009	     -0.00000003	   -109.60276094	     -0.00000000	      0.00000000	   -140.56892699	     41.51090885	   -235.78363534	     38.48405866	    -49.74143749	      0.00000031	     -0.00000011	   -108.50715894	      0.00000000	     -0.00000000	    -16.24481683	     -0.09379581	      0.57697300	      0.99963388	      0.03735273	      0.92662438	      0.06853370	      0.90455991	      0.04947860	      0.96635703	      0.08455477	      0.96643962	      0.16912976	      0.94108957	      0.46494655	      0.95296157	      0.07631043	      0.99586441	      0.08998604	      0.99999998	      0.07524466	      0.91456453	      0.31847918	      0.94261535	      0.06389466	      0.91257293	      0.07127715	      0.92092731	      0.08494458	      0.97084728	      0.10777391	      0.97440561	      0.09936979	      1.00000000	      0.04454164	      0.90885261	      0.02168069	      0.90609387	      0.01300545	      0.99999647	      0.08987551	      0.12132240	      0.06365874	      0.99998778	      0.04641369	      0.99999047	      0.03888365	      0.91838683	      0.01282950	      0.91625937	      0.10478486	      0.99963388	      0.03808643	      0.92662438	      0.07018443	      0.90455991	      0.05139487	      0.96635703	      0.08490454	      0.96643962	      0.16888576	      0.94108957	      0.46477948	      0.95296157	      0.07543861	      0.99586441	      0.09049406	      0.99999999	      0.07469001	      0.91456453	      0.31716928	      0.94261535	      0.06569503	      0.91257293	      0.07295462	      0.92092731	      0.08598892	      0.97084728	      0.10716276	      0.97440561	      0.09881570	      1.00000000	      0.04515971	      0.90885262	      0.02254539	      0.90609387	      0.01442211	      0.99999647	      0.09000954	      0.12132240	      0.06429764	      0.99998777	      0.04597739	      0.99999047	      0.03874008	      0.91838683	      0.01276104	      0.91625937	      0.10500914	      0.99999983	      0.13273268	      0.99999983	      0.13291223	      0.91869286	      0.07728192	      0.91869286	      0.07789110	      0.94486657	      0.10388917	      0.94486657	      0.10408894
      0.29569291	     11.19982976	      0.42506256	      1.51486801	      0.07456886	      1.14154618	     -0.00430688	     -4.84075172	     -6.59096767	     -9.05063427	      1.77294298	     -0.00466351	     -0.39570092	     -2.35275039	      0.04960003	     -0.02270001	    -63.71817144	     14.24999998	     -0.00000000	     -3.75089814	     -5.62005004	     -7.57276921	      0.99823439	     -1.32676232	      0.04960001	     -0.02270000	    -64.27684962	     14.24999998	     -0.00000000	    -20.85868793	      0.15400426	     -0.04161685	    130.91970862	      2.45188428	      7.21221674	      0.04627758	      1.35861139	     -0.01492506	   -142.58544170	     46.33992476	   -233.21590163	     35.68783739	     -0.00307677	      0.00235512	    -48.25225972	      0.00000007	     -0.00000003	   -105.14487294	     -0.00000000	      0.00000000	   -139.47108294	     42.34471022	   -235.51297056	     38.59821244	    -50.05567472	      0.00000029	     -0.00000010	   -102.39941420	      0.00000000	     -0.00000000	    -16.79550112	     -0.08026087	      0.49254769	      0.99966192	      0.03745244	      0.92690994	      0.06842052	      0.90400170	      0.04923723	      0.96579642	      0.08431092	      0.96907046	      0.16914506	      0.94357472	      0.46511650	      0.95342811	      0.07617871	      0.99618199	      0.09017897	      0.99999998	      0.07529675	      0.91549995	      0.31840966	      0.94309368	      0.06362955	      0.91142842	      0.07095190	      0.91848311	      0.08446999	      0.97312549	      0.10794021	      0.97640073	      0.09952428	      1.00000000	      0.04428310	      0.90674929	      0.02148383	      0.90374929	      0.01281344	      0.99999674	      0.08994342	      0.11939890	      0.06361494	      0.99998871	      0.04634000	      0.99999120	      0.03883208	      0.91858729	      0.01277919	      0.92100075	      0.10483166	      0.99966192	      0.03819079	      0.92690994	      0.07007528	      0.90400170	      0.05115330	      0.96579643	      0.08466602	      0.96907046	      0.16890140	      0.94357473	      0.46494408	      0.95342811	      0.07531302	      0.99618199	      0.09068645	      0.99999999	      0.07474589	      0.91549995	      0.31710484	      0.94309368	      0.06542863	      0.91142842	      0.07262841	      0.91848311	      0.08552205	      0.97312549	      0.10732796	      0.97640073	      0.09896840	      1.00000000	      0.04489537	      0.90674930	      0.02234468	      0.90374929	      0.01422860	      0.99999674	      0.09007930	      0.11939890	      0.06425356	      0.99998870	      0.04590598	      0.99999120	      0.03869021	      0.91858729	      0.01271192	      0.92100075	      0.10505392	      0.99999984	      0.13274593	      0.99999984	      0.13292572	      0.91763708	      0.07726496	      0.91763708	      0.07787161	      0.94637385	      0.10385140	      0.94637385	      0.10405352
